
<svg width="1604px" height="757px" viewBox="100 0 1604 757" version="1.1" xmlns="http://www.w3.org/2000/svg" xmlns:xlink="http://www.w3.org/1999/xlink">
    <g id="Page-1" stroke="none" stroke-width="1" fill="none" fill-rule="evenodd">
        <g id="Desktop" transform="translate(144.000000, -54.000000)">
            <g id="Group-20" transform="translate(-206.000000, -43.000000)">
                <g id="Hexagon" transform="translate(63.000000, 99.000000)">
                    <path d="M167.875644,36 L232.741302,73.4736842 L232.741302,148.421053 L167.875644,185.894737 L103,148.421053 L103,73.4736842 L167.875644,36 Z M232.741302,148.421053 L297.616946,185.894737 L297.616946,260.842105 L232.741302,298.315789 L167.875644,260.842105 L167.875644,185.894737 L232.741302,148.421053 Z M232.741302,373.263158 L297.616946,410.736842 L297.616946,485.684211 L232.741302,523.157895 L167.875644,485.684211 L167.875644,410.736842 L232.741302,373.263158 Z M362.482603,373.263158 L427.34826,410.736842 L427.34826,485.684211 L362.482603,523.157895 L297.616946,485.684211 L297.616946,410.736842 L362.482603,373.263158 Z M686.830863,260.842105 L751.696521,298.315789 L751.696521,373.263158 L686.830863,410.736842 L621.955219,373.263158 L621.955219,298.315789 L686.830863,260.842105 Z M881.437822,598.105263 L946.303479,635.578947 L946.303479,710.526316 L881.437822,748 L816.562178,710.526316 L816.562178,635.578947 L881.437822,598.105263 Z M1140.91044,148.421053 L1205.78608,185.894737 L1205.78608,260.842105 L1140.91044,298.315789 L1076.04478,260.842105 L1076.04478,185.894737 L1140.91044,148.421053 Z M1270.65174,148.421053 L1335.5174,185.894737 L1335.5174,260.842105 L1270.65174,298.315789 L1205.78608,260.842105 L1205.78608,185.894737 L1270.65174,148.421053 Z M1465.2587,260.842105 L1530.13434,298.315789 L1530.13434,373.263158 L1465.2587,410.736842 L1400.39304,373.263158 L1400.39304,298.315789 L1465.2587,260.842105 Z M1530.13434,373.263158 L1595,410.736842 L1595,485.684211 L1530.13434,523.157895 L1465.2587,485.684211 L1465.2587,410.736842 L1530.13434,373.263158 Z M1530.13434,598.105263 L1595,635.578947 L1595,710.526316 L1530.13434,748 L1465.2587,710.526316 L1465.2587,635.578947 L1530.13434,598.105263 Z" id="Shape" stroke="#2A3D23" stroke-width="2"></path>
                    <path d="M160.876483,35.4948454 C160.876483,39.6341342 164.23003,42.9896907 168.36684,42.9896907 C172.50365,42.9896907 175.857198,39.6341342 175.857198,35.4948454 C175.857198,31.3555566 172.50365,28 168.36684,28 C164.23003,28 160.876483,31.3555566 160.876483,35.4948454 Z M225.742979,72.9690722 C225.742979,77.108361 229.096526,80.4639175 233.233336,80.4639175 C237.370146,80.4639175 240.723693,77.108361 240.723693,72.9690722 C240.723693,68.8297834 237.370146,65.4742268 233.233336,65.4742268 C229.096526,65.4742268 225.742979,68.8297834 225.742979,72.9690722 Z M225.742979,147.917526 C225.742979,152.056815 229.096526,155.412371 233.233336,155.412371 C237.370146,155.412371 240.723693,152.056815 240.723693,147.917526 C240.723693,143.778237 237.370146,140.42268 233.233336,140.42268 C229.096526,140.42268 225.742979,143.778237 225.742979,147.917526 Z M160.876483,185.391753 C160.876483,189.531041 164.23003,192.886598 168.36684,192.886598 C172.50365,192.886598 175.857198,189.531041 175.857198,185.391753 C175.857198,181.252464 172.50365,177.896907 168.36684,177.896907 C164.23003,177.896907 160.876483,181.252464 160.876483,185.391753 Z M96,147.917526 C96,152.056815 99.3535473,155.412371 103.490357,155.412371 C107.627168,155.412371 110.980715,152.056815 110.980715,147.917526 C110.980715,143.778237 107.627168,140.42268 103.490357,140.42268 C99.3535473,140.42268 96,143.778237 96,147.917526 Z M96,72.9690722 C96,77.108361 99.3535473,80.4639175 103.490357,80.4639175 C107.627168,80.4639175 110.980715,77.108361 110.980715,72.9690722 C110.980715,68.8297834 107.627168,65.4742268 103.490357,65.4742268 C99.3535473,65.4742268 96,68.8297834 96,72.9690722 Z M290.619461,185.391753 C290.619461,189.531041 293.973009,192.886598 298.109819,192.886598 C302.246629,192.886598 305.600176,189.531041 305.600176,185.391753 C305.600176,181.252464 302.246629,177.896907 298.109819,177.896907 C293.973009,177.896907 290.619461,181.252464 290.619461,185.391753 Z M290.619461,260.340206 C290.619461,264.479495 293.973009,267.835052 298.109819,267.835052 C302.246629,267.835052 305.600176,264.479495 305.600176,260.340206 C305.600176,256.200917 302.246629,252.845361 298.109819,252.845361 C293.973009,252.845361 290.619461,256.200917 290.619461,260.340206 L290.619461,260.340206 Z M225.742979,297.814433 C225.742979,301.953722 229.096526,305.309278 233.233336,305.309278 C237.370146,305.309278 240.723693,301.953722 240.723693,297.814433 C240.723693,293.675144 237.370146,290.319588 233.233336,290.319588 C229.096526,290.319588 225.742979,293.675144 225.742979,297.814433 Z M160.876483,260.340206 C160.876483,264.479495 164.23003,267.835052 168.36684,267.835052 C172.50365,267.835052 175.857198,264.479495 175.857198,260.340206 C175.857198,256.200917 172.50365,252.845361 168.36684,252.845361 C164.23003,252.845361 160.876483,256.200917 160.876483,260.340206 L160.876483,260.340206 Z M225.742979,372.762887 C225.742979,376.902175 229.096526,380.257732 233.233336,380.257732 C237.370146,380.257732 240.723693,376.902175 240.723693,372.762887 C240.723693,368.623598 237.370146,365.268041 233.233336,365.268041 C229.096526,365.268041 225.742979,368.623598 225.742979,372.762887 Z M290.619461,410.237113 C290.619461,414.376402 293.973009,417.731959 298.109819,417.731959 C302.246629,417.731959 305.600176,414.376402 305.600176,410.237113 C305.600176,406.097825 302.246629,402.742268 298.109819,402.742268 C293.973009,402.742268 290.619461,406.097825 290.619461,410.237113 Z M290.619461,485.185567 C290.619461,489.324856 293.973009,492.680412 298.109819,492.680412 C302.246629,492.680412 305.600176,489.324856 305.600176,485.185567 C305.600176,481.046278 302.246629,477.690722 298.109819,477.690722 C293.973009,477.690722 290.619461,481.046278 290.619461,485.185567 Z M225.742979,522.659794 C225.742979,526.799083 229.096526,530.154639 233.233336,530.154639 C237.370146,530.154639 240.723693,526.799083 240.723693,522.659794 C240.723693,518.520505 237.370146,515.164948 233.233336,515.164948 C229.096526,515.164948 225.742979,518.520505 225.742979,522.659794 L225.742979,522.659794 Z M160.876483,485.185567 C160.876483,489.324856 164.23003,492.680412 168.36684,492.680412 C172.50365,492.680412 175.857198,489.324856 175.857198,485.185567 C175.857198,481.046278 172.50365,477.690722 168.36684,477.690722 C164.23003,477.690722 160.876483,481.046278 160.876483,485.185567 Z M160.876483,410.237113 C160.876483,414.376402 164.23003,417.731959 168.36684,417.731959 C172.50365,417.731959 175.857198,414.376402 175.857198,410.237113 C175.857198,406.097825 172.50365,402.742268 168.36684,402.742268 C164.23003,402.742268 160.876483,406.097825 160.876483,410.237113 Z M355.485957,372.762887 C355.485957,376.902175 358.839504,380.257732 362.976314,380.257732 C367.113125,380.257732 370.466672,376.902175 370.466672,372.762887 C370.466672,368.623598 367.113125,365.268041 362.976314,365.268041 C358.839504,365.268041 355.485957,368.623598 355.485957,372.762887 Z M420.352453,410.237113 C420.352453,414.376402 423.706,417.731959 427.84281,417.731959 C431.97962,417.731959 435.333168,414.376402 435.333168,410.237113 C435.333168,406.097825 431.97962,402.742268 427.84281,402.742268 C423.706,402.742268 420.352453,406.097825 420.352453,410.237113 Z M420.352453,485.185567 C420.352453,489.324856 423.706,492.680412 427.84281,492.680412 C431.97962,492.680412 435.333168,489.324856 435.333168,485.185567 C435.333168,481.046278 431.97962,477.690722 427.84281,477.690722 C423.706,477.690722 420.352453,481.046278 420.352453,485.185567 Z M355.485957,522.659794 C355.485957,526.799083 358.839504,530.154639 362.976314,530.154639 C367.113125,530.154639 370.466672,526.799083 370.466672,522.659794 C370.466672,518.520505 367.113125,515.164948 362.976314,515.164948 C358.839504,515.164948 355.485957,518.520505 355.485957,522.659794 L355.485957,522.659794 Z M679.83841,260.340206 C679.83841,264.479495 683.191957,267.835052 687.328767,267.835052 C691.465577,267.835052 694.819125,264.479495 694.819125,260.340206 C694.819125,256.200917 691.465577,252.845361 687.328767,252.845361 C683.191957,252.845361 679.83841,256.200917 679.83841,260.340206 L679.83841,260.340206 Z M744.704905,297.814433 C744.704905,301.953722 748.058453,305.309278 752.195263,305.309278 C756.332073,305.309278 759.68562,301.953722 759.68562,297.814433 C759.68562,293.675144 756.332073,290.319588 752.195263,290.319588 C748.058453,290.319588 744.704905,293.675144 744.704905,297.814433 Z M744.704905,372.762887 C744.704905,376.902175 748.058453,380.257732 752.195263,380.257732 C756.332073,380.257732 759.68562,376.902175 759.68562,372.762887 C759.68562,368.623598 756.332073,365.268041 752.195263,365.268041 C748.058453,365.268041 744.704905,368.623598 744.704905,372.762887 Z M679.83841,410.237113 C679.83841,414.376402 683.191957,417.731959 687.328767,417.731959 C691.465577,417.731959 694.819125,414.376402 694.819125,410.237113 C694.819125,406.097825 691.465577,402.742268 687.328767,402.742268 C683.191957,402.742268 679.83841,406.097825 679.83841,410.237113 Z M614.961927,372.762887 C614.961927,376.902175 618.315474,380.257732 622.452284,380.257732 C626.589095,380.257732 629.942642,376.902175 629.942642,372.762887 C629.942642,368.623598 626.589095,365.268041 622.452284,365.268041 C618.315474,365.268041 614.961927,368.623598 614.961927,372.762887 Z M614.961927,297.814433 C614.961927,301.953722 618.315474,305.309278 622.452284,305.309278 C626.589095,305.309278 629.942642,301.953722 629.942642,297.814433 C629.942642,293.675144 626.589095,290.319588 622.452284,290.319588 C618.315474,290.319588 614.961927,293.675144 614.961927,297.814433 Z M874.447884,597.608247 C874.447884,601.747536 877.801431,605.103093 881.938241,605.103093 C886.075052,605.103093 889.428599,601.747536 889.428599,597.608247 C889.428599,593.468959 886.075052,590.113402 881.938241,590.113402 C877.801431,590.113402 874.447884,593.468959 874.447884,597.608247 Z M939.31438,635.082474 C939.31438,639.221763 942.667927,642.57732 946.804737,642.57732 C950.941547,642.57732 954.295095,639.221763 954.295095,635.082474 C954.295095,630.943185 950.941547,627.587629 946.804737,627.587629 C942.667927,627.587629 939.31438,630.943185 939.31438,635.082474 Z M939.31438,710.030928 C939.31438,714.170217 942.667927,717.525773 946.804737,717.525773 C950.941547,717.525773 954.295095,714.170217 954.295095,710.030928 C954.295095,705.891639 950.941547,702.536082 946.804737,702.536082 C942.667927,702.536082 939.31438,705.891639 939.31438,710.030928 Z M874.447884,747.505155 C874.447884,751.644443 877.801431,755 881.938241,755 C886.075052,755 889.428599,751.644443 889.428599,747.505155 C889.428599,743.365866 886.075052,740.010309 881.938241,740.010309 C877.801431,740.010309 874.447884,743.365866 874.447884,747.505155 Z M809.571401,710.030928 C809.571401,714.170217 812.924948,717.525773 817.061759,717.525773 C821.198569,717.525773 824.552116,714.170217 824.552116,710.030928 C824.552116,705.891639 821.198569,702.536082 817.061759,702.536082 C812.924948,702.536082 809.571401,705.891639 809.571401,710.030928 Z M809.571401,635.082474 C809.571401,639.221763 812.924948,642.57732 817.061759,642.57732 C821.198569,642.57732 824.552116,639.221763 824.552116,635.082474 C824.552116,630.943185 821.198569,627.587629 817.061759,627.587629 C812.924948,627.587629 809.571401,630.943185 809.571401,635.082474 Z M1133.92385,147.917526 C1133.92385,152.056815 1137.2774,155.412371 1141.41421,155.412371 C1145.55102,155.412371 1148.90457,152.056815 1148.90457,147.917526 C1148.90457,143.778237 1145.55102,140.42268 1141.41421,140.42268 C1137.2774,140.42268 1133.92385,143.778237 1133.92385,147.917526 Z M1198.80034,185.391753 C1198.80034,189.531041 1202.15388,192.886598 1206.29069,192.886598 C1210.4275,192.886598 1213.78105,189.531041 1213.78105,185.391753 C1213.78105,181.252464 1210.4275,177.896907 1206.29069,177.896907 C1202.15388,177.896907 1198.80034,181.252464 1198.80034,185.391753 Z M1198.80034,260.340206 C1198.80034,264.479495 1202.15388,267.835052 1206.29069,267.835052 C1210.4275,267.835052 1213.78105,264.479495 1213.78105,260.340206 C1213.78105,256.200917 1210.4275,252.845361 1206.29069,252.845361 C1202.15388,252.845361 1198.80034,256.200917 1198.80034,260.340206 L1198.80034,260.340206 Z M1133.92385,297.814433 C1133.92385,301.953722 1137.2774,305.309278 1141.41421,305.309278 C1145.55102,305.309278 1148.90457,301.953722 1148.90457,297.814433 C1148.90457,293.675144 1145.55102,290.319588 1141.41421,290.319588 C1137.2774,290.319588 1133.92385,293.675144 1133.92385,297.814433 Z M1069.05736,260.340206 C1069.05736,264.479495 1072.41091,267.835052 1076.54772,267.835052 C1080.68453,267.835052 1084.03807,264.479495 1084.03807,260.340206 C1084.03807,256.200917 1080.68453,252.845361 1076.54772,252.845361 C1072.41091,252.845361 1069.05736,256.200917 1069.05736,260.340206 L1069.05736,260.340206 Z M1069.05736,185.391753 C1069.05736,189.531041 1072.41091,192.886598 1076.54772,192.886598 C1080.68453,192.886598 1084.03807,189.531041 1084.03807,185.391753 C1084.03807,181.252464 1080.68453,177.896907 1076.54772,177.896907 C1072.41091,177.896907 1069.05736,181.252464 1069.05736,185.391753 Z M1263.66683,147.917526 C1263.66683,152.056815 1267.02038,155.412371 1271.15719,155.412371 C1275.294,155.412371 1278.64755,152.056815 1278.64755,147.917526 C1278.64755,143.778237 1275.294,140.42268 1271.15719,140.42268 C1267.02038,140.42268 1263.66683,143.778237 1263.66683,147.917526 Z M1328.53333,185.391753 C1328.53333,189.531041 1331.88688,192.886598 1336.02369,192.886598 C1340.1605,192.886598 1343.51404,189.531041 1343.51404,185.391753 C1343.51404,181.252464 1340.1605,177.896907 1336.02369,177.896907 C1331.88688,177.896907 1328.53333,181.252464 1328.53333,185.391753 Z M1328.53333,260.340206 C1328.53333,264.479495 1331.88688,267.835052 1336.02369,267.835052 C1340.1605,267.835052 1343.51404,264.479495 1343.51404,260.340206 C1343.51404,256.200917 1340.1605,252.845361 1336.02369,252.845361 C1331.88688,252.845361 1328.53333,256.200917 1328.53333,260.340206 L1328.53333,260.340206 Z M1263.66683,297.814433 C1263.66683,301.953722 1267.02038,305.309278 1271.15719,305.309278 C1275.294,305.309278 1278.64755,301.953722 1278.64755,297.814433 C1278.64755,293.675144 1275.294,290.319588 1271.15719,290.319588 C1267.02038,290.319588 1263.66683,293.675144 1263.66683,297.814433 Z M1458.27631,260.340206 C1458.27631,264.479495 1461.62985,267.835052 1465.76666,267.835052 C1469.90347,267.835052 1473.25702,264.479495 1473.25702,260.340206 C1473.25702,256.200917 1469.90347,252.845361 1465.76666,252.845361 C1461.62985,252.845361 1458.27631,256.200917 1458.27631,260.340206 L1458.27631,260.340206 Z M1523.15279,297.814433 C1523.15279,301.953722 1526.50634,305.309278 1530.64315,305.309278 C1534.77996,305.309278 1538.1335,301.953722 1538.1335,297.814433 C1538.1335,293.675144 1534.77996,290.319588 1530.64315,290.319588 C1526.50634,290.319588 1523.15279,293.675144 1523.15279,297.814433 Z M1523.15279,372.762887 C1523.15279,376.902175 1526.50634,380.257732 1530.64315,380.257732 C1534.77996,380.257732 1538.1335,376.902175 1538.1335,372.762887 C1538.1335,368.623598 1534.77996,365.268041 1530.64315,365.268041 C1526.50634,365.268041 1523.15279,368.623598 1523.15279,372.762887 Z M1458.27631,410.237113 C1458.27631,414.376402 1461.62985,417.731959 1465.76666,417.731959 C1469.90347,417.731959 1473.25702,414.376402 1473.25702,410.237113 C1473.25702,406.097825 1469.90347,402.742268 1465.76666,402.742268 C1461.62985,402.742268 1458.27631,406.097825 1458.27631,410.237113 Z M1393.40981,372.762887 C1393.40981,376.902175 1396.76336,380.257732 1400.90017,380.257732 C1405.03698,380.257732 1408.39053,376.902175 1408.39053,372.762887 C1408.39053,368.623598 1405.03698,365.268041 1400.90017,365.268041 C1396.76336,365.268041 1393.40981,368.623598 1393.40981,372.762887 Z M1393.40981,297.814433 C1393.40981,301.953722 1396.76336,305.309278 1400.90017,305.309278 C1405.03698,305.309278 1408.39053,301.953722 1408.39053,297.814433 C1408.39053,293.675144 1405.03698,290.319588 1400.90017,290.319588 C1396.76336,290.319588 1393.40981,293.675144 1393.40981,297.814433 Z M1588.01929,410.237113 C1588.01929,414.376402 1591.37283,417.731959 1595.50964,417.731959 C1599.64645,417.731959 1603,414.376402 1603,410.237113 C1603,406.097825 1599.64645,402.742268 1595.50964,402.742268 C1591.37283,402.742268 1588.01929,406.097825 1588.01929,410.237113 Z M1588.01929,485.185567 C1588.01929,489.324856 1591.37283,492.680412 1595.50964,492.680412 C1599.64645,492.680412 1603,489.324856 1603,485.185567 C1603,481.046278 1599.64645,477.690722 1595.50964,477.690722 C1591.37283,477.690722 1588.01929,481.046278 1588.01929,485.185567 Z M1523.15279,522.659794 C1523.15279,526.799083 1526.50634,530.154639 1530.64315,530.154639 C1534.77996,530.154639 1538.1335,526.799083 1538.1335,522.659794 C1538.1335,518.520505 1534.77996,515.164948 1530.64315,515.164948 C1526.50634,515.164948 1523.15279,518.520505 1523.15279,522.659794 L1523.15279,522.659794 Z M1458.27631,485.185567 C1458.27631,489.324856 1461.62985,492.680412 1465.76666,492.680412 C1469.90347,492.680412 1473.25702,489.324856 1473.25702,485.185567 C1473.25702,481.046278 1469.90347,477.690722 1465.76666,477.690722 C1461.62985,477.690722 1458.27631,481.046278 1458.27631,485.185567 Z M1523.15279,597.608247 C1523.15279,601.747536 1526.50634,605.103093 1530.64315,605.103093 C1534.77996,605.103093 1538.1335,601.747536 1538.1335,597.608247 C1538.1335,593.468959 1534.77996,590.113402 1530.64315,590.113402 C1526.50634,590.113402 1523.15279,593.468959 1523.15279,597.608247 Z M1588.01929,635.082474 C1588.01929,639.221763 1591.37283,642.57732 1595.50964,642.57732 C1599.64645,642.57732 1603,639.221763 1603,635.082474 C1603,630.943185 1599.64645,627.587629 1595.50964,627.587629 C1591.37283,627.587629 1588.01929,630.943185 1588.01929,635.082474 Z M1588.01929,710.030928 C1588.01929,714.170217 1591.37283,717.525773 1595.50964,717.525773 C1599.64645,717.525773 1603,714.170217 1603,710.030928 C1603,705.891639 1599.64645,702.536082 1595.50964,702.536082 C1591.37283,702.536082 1588.01929,705.891639 1588.01929,710.030928 Z M1523.15279,747.505155 C1523.15279,751.644443 1526.50634,755 1530.64315,755 C1534.77996,755 1538.1335,751.644443 1538.1335,747.505155 C1538.1335,743.365866 1534.77996,740.010309 1530.64315,740.010309 C1526.50634,740.010309 1523.15279,743.365866 1523.15279,747.505155 Z M1458.27631,710.030928 C1458.27631,714.170217 1461.62985,717.525773 1465.76666,717.525773 C1469.90347,717.525773 1473.25702,714.170217 1473.25702,710.030928 C1473.25702,705.891639 1469.90347,702.536082 1465.76666,702.536082 C1461.62985,702.536082 1458.27631,705.891639 1458.27631,710.030928 Z M1458.27631,635.082474 C1458.27631,639.221763 1461.62985,642.57732 1465.76666,642.57732 C1469.90347,642.57732 1473.25702,639.221763 1473.25702,635.082474 C1473.25702,630.943185 1469.90347,627.587629 1465.76666,627.587629 C1461.62985,627.587629 1458.27631,630.943185 1458.27631,635.082474 Z" id="Shape" fill="#2E3C26" fill-rule="nonzero"></path>
                    <path d="M43.2310037,149.76 L86.4620074,174.72 L86.4620074,224.64 L43.2310037,249.6 L0,224.64 L0,174.72 L43.2310037,149.76 Z M86.4620074,524.16 L129.702995,549.12 L129.702995,599.04 L86.4620074,624 L43.2310037,599.04 L43.2310037,549.12 L86.4620074,524.16 Z M172.933999,74.88 L216.165003,99.84 L216.165003,149.76 L172.933999,174.72 L129.702995,149.76 L129.702995,99.84 L172.933999,74.88 Z M172.933999,224.64 L216.165003,249.6 L216.165003,299.52 L172.933999,324.48 L129.702995,299.52 L129.702995,249.6 L172.933999,224.64 Z M216.165003,0 L259.396006,24.96 L259.396006,74.88 L216.165003,99.84 L172.933999,74.88 L172.933999,24.96 L216.165003,0 Z M302.62701,0 L345.867998,24.96 L345.867998,74.88 L302.62701,99.84 L259.396006,74.88 L259.396006,24.96 L302.62701,0 Z M432.330005,374.4 L475.570993,399.36 L475.570993,449.28 L432.330005,474.24 L389.099002,449.28 L389.099002,399.36 L432.330005,374.4 Z M518.801997,74.88 L562.033001,99.84 L562.033001,149.76 L518.801997,174.72 L475.570993,149.76 L475.570993,99.84 L518.801997,74.88 Z M648.504992,449.28 L691.735996,474.24 L691.735996,524.16 L648.504992,549.12 L605.264004,524.16 L605.264004,474.24 L648.504992,449.28 Z M1037.60399,374.4 L1080.835,399.36 L1080.835,449.28 L1037.60399,474.24 L994.37299,449.28 L994.37299,399.36 L1037.60399,374.4 Z M1124.066,74.88 L1167.30699,99.84 L1167.30699,149.76 L1124.066,174.72 L1080.835,149.76 L1080.835,99.84 L1124.066,74.88 Z M1124.066,224.64 L1167.30699,249.6 L1167.30699,299.52 L1124.066,324.48 L1080.835,299.52 L1080.835,249.6 L1124.066,224.64 Z M1253.769,0 L1297,24.96 L1297,74.88 L1253.769,99.84 L1210.53799,74.88 L1210.53799,24.96 L1253.769,0 Z" id="Shape" stroke="#5D933F" stroke-width="2"></path>
                </g>
            </g>
        </g>
    </g>
</svg>