<svg width="112px" height="42px" viewBox="0 0 112 42" version="1.1" xmlns="http://www.w3.org/2000/svg" xmlns:xlink="http://www.w3.org/1999/xlink">
   <g id="Page-1" stroke="none" stroke-width="1" fill="none" fill-rule="evenodd">
      <g id="Desktop" transform="translate(-356.000000, -1312.000000)" fill="#2DBCAF" fill-rule="nonzero">
         <g id="Integrated-application-configuration" transform="translate(186.000000, 1137.000000)">
            <g id="go" transform="translate(170.000000, 175.000000)">
               <path d="M8.22335025,12.9473684 C8,12.9473684 7.94416244,12.8421053 8.05583756,12.6842105 L9.2284264,11.2631579 C9.34010152,11.1052632 9.61928934,11 9.84263959,11 L29.7766497,11 C30,11 30.0558376,11.1578947 29.9441624,11.3157895 L28.9949239,12.6842105 C28.8832487,12.8421053 28.6040609,13 28.4365482,13 L8.22335025,12.9473684 Z" id="Path"></path>
               <path d="M0.218510761,18 C0,18 -0.0546276903,17.8918919 0.0546276903,17.7297297 L1.20180919,16.2702703 C1.31106457,16.1081081 1.58420302,16 1.80271378,16 L26.7129406,16 C26.9314513,16 27.0407067,16.1621622 26.986079,16.3243243 L26.5490575,17.6216216 C26.4944298,17.8378378 26.275919,17.9459459 26.0574083,17.9459459 L0.218510761,18 Z" id="Path"></path>
               <path d="M13.2077922,22.9473684 C13,22.9473684 12.9480519,22.7894737 13.0519481,22.6315789 L13.7792208,21.3157895 C13.8831169,21.1578947 14.0909091,21 14.2987013,21 L24.6883117,21 C24.8961039,21 25,21.1578947 25,21.3684211 L24.8961039,22.6315789 C24.8961039,22.8421053 24.6883117,23 24.5324675,23 L13.2077922,22.9473684 Z" id="Path"></path>
               <g id="Group" transform="translate(30.000000, 0.000000)">
                  <path d="M40.1568395,11.7319296 C36.7327637,12.6076785 34.3956961,13.2644902 31.0259708,14.140239 C30.2107146,14.3591763 30.1563642,14.4139106 29.4498089,13.592896 C28.6345527,12.6624128 28.0366982,12.0603355 26.8953396,11.5129924 C23.4712638,9.81622899 20.1558889,10.3088377 17.0579155,12.334007 C13.3620877,14.7423164 11.4598234,18.3000462 11.5141738,22.7335248 C11.5685242,27.1122692 14.5577967,30.7247333 18.8514791,31.3268106 C22.5473069,31.8194194 25.6452802,30.5057961 28.0910486,27.7143465 C28.5802023,27.1122692 29.0150056,26.4554575 29.5585097,25.6891773 C27.601895,25.6891773 25.1561265,25.6891773 19.0688807,25.6891773 C17.9275221,25.6891773 17.65577,24.9776313 18.0362229,24.0471481 C18.7427782,22.3503847 20.0471881,19.5042009 20.8080938,18.081109 C20.971145,17.7527031 21.3515979,17.2053601 22.166854,17.2053601 C24.9387249,17.2053601 35.1566019,17.2053601 41.950403,17.2053601 C41.8417022,18.6831863 41.8417022,20.1610125 41.6243006,21.6388388 C41.0264461,25.5797087 39.558985,29.1921728 37.167567,32.3667624 C33.2543375,37.5665213 28.1453991,40.7958453 21.6777003,41.6715942 C16.3513602,42.3831401 11.405473,41.3431883 7.05744021,38.0591301 C3.03550992,34.994009 0.752792725,30.9436705 0.154938222,25.9081145 C-0.5516171,19.9420753 1.187596,14.5781135 4.77472302,9.8709633 C8.63360209,4.78067299 13.7425406,1.55134902 19.9928376,0.401928631 C25.1017761,-0.528554545 29.993313,0.0735228042 34.3956961,3.08390955 C37.2762678,4.9996102 39.3415834,7.62685682 40.7003436,10.8014465 C41.0264461,11.2940552 40.8090444,11.5677267 40.1568395,11.7319296 Z" id="Path"></path>
                  <path d="M58.146825,42 C53.2009378,41.8905314 48.6898538,40.4674395 44.8853251,37.1833812 C41.678651,34.3919317 39.6676858,30.8342019 39.0154809,26.6196605 C38.0371736,20.4346841 39.7220363,14.9612536 43.4178641,10.0899005 C47.385444,4.83540729 52.16828,2.09869207 58.6359787,0.949271675 C64.1797205,-0.0359458046 69.3973598,0.51139724 74.1258454,3.7407212 C78.4195277,6.69637364 81.0826978,10.6919779 81.7892531,15.9464711 C82.7132101,23.3356022 80.5935441,29.3563757 75.538956,34.5014003 C71.951829,38.1685987 67.5494459,40.4674395 62.4948578,41.5073913 C61.0273967,41.7810628 59.5599357,41.8357971 58.146825,42 Z M71.0822225,19.887341 C71.0278721,19.1757951 71.0278721,18.628452 70.9191712,18.081109 C69.9408639,12.6624128 64.9949766,9.59729178 59.8316877,10.8014465 C54.7770997,11.9508669 51.5160751,15.1801908 50.3203661,20.3252154 C49.3420587,24.5944912 51.4073743,28.9185012 55.3206037,30.669999 C58.3098763,31.9836223 61.2991488,31.8194194 64.1797205,30.3415932 C68.4734028,28.0974867 70.8104704,24.5944912 71.0822225,19.887341 Z" id="Shape"></path>
               </g>
            </g>
         </g>
      </g>
   </g>
</svg>