<svg width="49px" height="65px" viewBox="0 0 49 65" version="1.1" xmlns="http://www.w3.org/2000/svg" xmlns:xlink="http://www.w3.org/1999/xlink">   <g id="Page-1" stroke="none" stroke-width="1" fill="none" fill-rule="evenodd">      <g id="Desktop" transform="translate(-186.000000, -1300.000000)" fill-rule="nonzero">         <g id="Integrated-application-configuration" transform="translate(186.000000, 1137.000000)">            <g id="java-icon" transform="translate(-0.000000, 163.000000)">               <path d="M15.1627007,49.7680176 C15.1627007,49.7680176 12.638939,51.376504 16.9170228,51.8366859 C22.0671382,52.5248084 24.8104467,52.4108381 30.5104549,51.2625337 C31.6560436,51.9977753 32.8676322,52.6135779 34.1278467,53.101111 C21.3038542,58.8469341 5.07380933,52.7570498 15.1606488,49.7680176 L15.1627007,49.7680176 Z M13.6277926,43.4213582 C13.6277926,43.4213582 10.8795158,45.4091529 15.1664985,45.8302129 C20.772078,46.3531106 25.1680867,46.4569068 32.7546472,44.9939682 C33.4924686,45.7063583 34.3958172,46.243701 35.391841,46.5626614 C19.8936991,50.9573524 2.52771649,46.9817629 13.6277926,43.4233166 L13.6277926,43.4213582 Z M43.6411555,55.4122449 C43.6411555,55.4122449 45.477845,56.9508787 41.5880279,58.1603929 C34.3464548,60.3613797 11.2179222,61.0196188 4.73287097,58.1603929 C2.46330533,57.1730343 6.78599854,55.7434214 8.1716068,55.5233227 C9.57744292,55.1942032 10.3359876,55.1942032 10.3359876,55.1942032 C7.84796108,53.4354707 -6.20028618,58.820689 3.20364492,60.3572657 C29.0346194,64.6440476 50.3264625,58.4895124 43.6249732,55.4122449 L43.6411555,55.4122449 Z M16.6116204,35.8136823 C16.6116204,35.8136823 4.70192644,38.6518225 12.3499785,39.6318997 C15.6280072,40.0688508 22.0736383,39.9585921 28.0836985,39.5236829 C32.9997191,39.0867318 37.9198296,38.2169133 37.9198296,38.2169133 C37.9198296,38.2169133 36.1714113,38.9805567 34.9689903,39.7442002 C22.8425334,42.9090328 -0.432902109,41.4899627 6.23358178,38.2169133 C11.9144076,35.4890318 16.6136653,35.817766 16.6136653,35.817766 L16.6116204,35.8136823 Z M38.1373172,47.5417359 C50.0771855,41.2974865 44.5342453,35.2748072 40.6952903,36.0261314 C39.7375469,36.2416587 39.3085576,36.457186 39.3085576,36.457186 C39.3085576,36.457186 39.6278054,35.8126183 40.3740472,35.597091 C47.9442111,32.9060209 53.9141452,43.668287 37.9198296,47.8640197 C37.9198296,47.8640197 38.0255805,47.7572632 38.1333266,47.5417359 L38.1373172,47.5417359 Z M18.0493318,64.7878691 C29.7384365,65.5682479 47.60028,64.3413422 48.0317842,58.6533406 C48.0317842,58.6533406 47.1667499,60.8859751 38.3989084,62.5552346 C28.4398722,64.449844 16.1004724,64.224494 8.84796024,63.0017615 C8.84796024,63.0017615 10.3632896,64.337169 18.0493318,64.7857825 L18.0493318,64.7878691 Z" id="Shape" fill="#4E7896"></path>               <path d="M30.9074871,0 C30.9074871,0 37.4783616,6.89004043 24.6559337,17.2803688 C14.3761743,25.7015293 22.3254847,30.5139135 24.6559337,35.9833692 C18.6146165,30.405425 14.2710562,25.4825054 17.2381641,20.8911921 C21.5817243,14.1075932 33.5572572,10.8467986 30.9074871,0 Z M27.3030114,31.0447142 C30.4373512,34.6233615 26.4395513,37.8772307 26.4395513,37.8772307 C26.4395513,37.8772307 34.435151,33.7566102 30.7608959,28.6575961 C27.4122077,23.7778071 24.8157611,21.390689 38.8636698,13.2570308 C38.8636698,13.2570308 16.7150094,18.7884056 27.3030114,31.0447142 L27.3030114,31.0447142 Z" id="Shape" fill="#F58219"></path>            </g>         </g>      </g>   </g></svg>