<svg xmlns="http://www.w3.org/2000/svg" width="313" height="88" fill="none" viewBox="0 0 313 88">
    <path fill="#000" d="M98.46 30.46H87.21v-6.72h30.121v6.72h-11.25v33.6h-7.62v-33.6Z"></path>
    <path fill="#000"
          d="M125.291 58.59a30.77 30.77 0 0 0 9-1.39l1.15 5.56a31.65 31.65 0 0 1-10.86 1.88c-9.25 0-12.46-4.3-12.46-11.38v-7.8c0-6.23 2.78-11.49 12.22-11.49 9.44 0 11.56 5.5 11.56 11.85v6.3h-16.32v1.51c0 3.57 1.23 4.96 5.71 4.96Zm-5.71-12.4h9.38v-1.46c0-2.78-.85-4.71-4.48-4.71-3.63 0-4.9 1.93-4.9 4.71v1.46ZM155.661 40.74a56.603 56.603 0 0 0-7.81 4.3v19.02h-7.38V34.57h6.23l.49 3.27a32.648 32.648 0 0 1 7.74-3.87l.73 6.77ZM173.68 40.74a57.125 57.125 0 0 0-7.8 4.3v19.02h-7.38V34.57h6.23l.48 3.27a32.764 32.764 0 0 1 7.75-3.87l.72 6.77ZM198.361 64.06h-6.05l-.54-2a16.153 16.153 0 0 1-8.77 2.6c-5.39 0-7.69-3.69-7.69-8.77 0-6 2.61-8.29 8.59-8.29h7.08v-3.11c0-3.26-.9-4.41-5.62-4.41-2.747.03-5.484.33-8.17.9l-.91-5.62a38.314 38.314 0 0 1 10.1-1.39c9.26 0 12 3.26 12 10.64l-.02 19.45Zm-7.38-11.16h-5.4c-2.42 0-3.09.67-3.09 2.91 0 2 .67 3 3 3 1.95-.03 3.861-.55 5.56-1.51l-.07-4.4ZM221.05 27.86a21.154 21.154 0 0 0-4.24-.49c-2.9 0-3.32 1.27-3.32 3.51v3.69h7.5l-.41 5.87h-7.07v23.62h-7.38V40.44h-4.72v-5.87h4.72v-4.11c0-6.11 2.84-9.14 9.37-9.14a23.496 23.496 0 0 1 6.35.85l-.8 5.69ZM235.44 64.64c-10.1 0-12.86-5.58-12.86-11.58v-7.48c0-6 2.72-11.61 12.82-11.61s12.83 5.56 12.83 11.61v7.48c.04 6-2.65 11.58-12.79 11.58Zm0-24.38c-3.93 0-5.44 1.75-5.44 5.08v7.92c0 3.33 1.51 5.09 5.44 5.09 3.93 0 5.45-1.76 5.45-5.09v-7.92c0-3.28-1.51-5.08-5.45-5.08ZM267.26 40.74a57.125 57.125 0 0 0-7.8 4.3v19.02h-7.38V34.57h6.23l.48 3.27a32.943 32.943 0 0 1 7.79-3.87l.68 6.77ZM287.58 64.06v-20.6c0-1.57-.67-2.36-2.36-2.36s-5 1.09-7.68 2.49v20.47h-7.39V34.57h5.63l.73 2.48a29.593 29.593 0 0 1 11.79-3.08c2.85 0 4.6 1.15 5.57 3.14a29.004 29.004 0 0 1 11.86-3.14c4.9 0 6.65 3.44 6.65 8.71v21.38H305v-20.6c0-1.57-.67-2.36-2.36-2.36a19.425 19.425 0 0 0-7.68 2.49v20.47h-7.38Z"></path>
    <path fill="#7B42BC" fill-rule="evenodd"
          d="m21.2 16.55 19.1 11.03v22.06L21.2 38.61V16.55ZM42.39 27.58v22.06L61.5 38.61V16.55L42.39 27.58ZM0 4.24V26.3l19.1 11.03V15.27L0 4.24ZM21.2 63.09l19.1 11.03V52.06L21.2 41.03v22.06Z"
          clip-rule="evenodd"></path>
    <path fill="#000"
          d="M95.02 13.78V8.12h-5.17v5.66h-2.64V.19h2.64v5.7h5.17V.19h2.64v13.59h-2.64Zm12.331 0h-2.1l-.19-.67a5.688 5.688 0 0 1-3 .87c-1.86 0-2.66-1.23-2.66-2.92 0-2 .9-2.76 3-2.76h2.45v-1c0-1.09-.31-1.47-2-1.47-.951.01-1.898.11-2.83.3l-.31-1.87a13.896 13.896 0 0 1 3.5-.46c3.2 0 4.15 1.08 4.15 3.54l-.01 6.44Zm-2.56-3.72h-1.89c-.83 0-1.06.23-1.06 1s.23 1 1 1a4 4 0 0 0 1.93-.51l.02-1.49Zm7.91 3.91a12.593 12.593 0 0 1-3.52-.56l.36-1.88a11.5 11.5 0 0 0 3 .43c1.13 0 1.3-.25 1.3-1s-.13-.91-1.78-1.29c-2.5-.58-2.79-1.19-2.79-3.08 0-1.89.9-2.83 3.81-2.83a14 14 0 0 1 3.06.34l-.21 1.96a18.84 18.84 0 0 0-2.81-.28c-1.11 0-1.3.24-1.3.84 0 .79.07.85 1.45 1.19 2.85.73 3.12 1.09 3.12 3.1s-.61 3.07-3.69 3.07v-.01Zm11.71-.2V6.94c0-.53-.23-.79-.82-.79a7.116 7.116 0 0 0-2.66.83v6.8h-2.56V0l2.56.38v4.34a9.342 9.342 0 0 1 3.73-.94c1.7 0 2.3 1.14 2.3 2.89v7.11l-2.55-.01Zm4.7-11.19V.18h2.56v2.4h-2.56Zm0 11.19v-9.8h2.56v9.8h-2.56Zm4.6-9.72c0-2.46 1.49-3.89 5-3.89 1.276.003 2.548.154 3.79.45l-.29 2.19a21.492 21.492 0 0 0-3.42-.34c-1.82 0-2.41.6-2.41 2v5.15c0 1.43.59 2 2.41 2a21.481 21.481 0 0 0 3.42-.34l.29 2.2c-1.242.293-2.514.44-3.79.44-3.48 0-5-1.43-5-3.89V4.05Zm14.41 9.92c-3.5 0-4.44-1.85-4.44-3.87V7.64c0-2 .94-3.86 4.44-3.86 3.5 0 4.46 1.85 4.46 3.86v2.47c0 2.02-1 3.87-4.46 3.87v-.01Zm0-8.11c-1.36 0-1.89.58-1.89 1.69v2.64c0 1.1.53 1.69 1.89 1.69 1.36 0 1.89-.59 1.89-1.69V7.56c0-1.11-.53-1.69-1.89-1.69v-.01Zm11.64.16c-.934.409-1.837.887-2.7 1.43v6.32h-2.56v-9.8h2.16l.17 1.08c.834-.54 1.735-.97 2.68-1.28l.25 2.25Zm10.22 4.49c0 2.17-1 3.46-3.37 3.46a14.846 14.846 0 0 1-2.73-.28v4l-2.55.38V3.98h2l.25.82a5.539 5.539 0 0 1 3.23-1c2.05 0 3.14 1.16 3.14 3.4l.03 3.31Zm-6.1 1.1c.746.162 1.506.252 2.27.27.92 0 1.28-.43 1.28-1.31V7.12c0-.81-.32-1.25-1.26-1.25a3.729 3.729 0 0 0-2.29.88v4.86Z"></path>
</svg>