<?xml version="1.0" encoding="UTF-8" standalone="no"?>
<svg
   width="1446"
   height="216"
   viewBox="0 0 1446 216"
   version="1.1"
   id="svg5"
   sodipodi:docname="website_separator2.svg"
   inkscape:version="1.3 (0e150ed, 2023-07-21)"
   xmlns:inkscape="http://www.inkscape.org/namespaces/inkscape"
   xmlns:sodipodi="http://sodipodi.sourceforge.net/DTD/sodipodi-0.dtd"
   xmlns="http://www.w3.org/2000/svg"
   xmlns:svg="http://www.w3.org/2000/svg">
  <defs
     id="defs5" />
  <g
     stroke="none"
     stroke-width="1"
     fill="none"
     fill-rule="evenodd"
     id="g5"
     transform="translate(-60.253522,133.79374)">
    <g
       transform="translate(59.051564,-633.79374)"
       fill="#1b1f23"
       fill-rule="nonzero"
       id="g4">
      <path
         d="M 1447.202,724 H 1.201958 V 540.46585 c 123.512232,-23.46239 249.088812,-34.2593 374.785302,-32.22356 152.22157,2.45179 167.53462,21.57577 328.63636,25.21843 207.87994,4.69344 256.96564,-25.35853 448.90338,-19.61433 98.6609,2.91963 196.9005,14.16766 293.675,33.62458"
         id="Path" />
      <path
         d="M 1.201958,722.44095 H 1447.202 V 521.45621 c -96.9304,-15.63214 -237.5177,-26.07219 -391.5963,12.28241 -52.2358,13.00817 -81.98606,25.62555 -112.08216,35.73062 -33.62473,11.27747 -279.99823,71.46123 -542.42302,0 C 334.81976,551.43644 325.41038,540.60559 251.65746,524.80596 148.98454,502.8093 60.148945,500.74362 1.201958,502.47432"
         id="path1"
         opacity="0.5"
         style="stroke-width:0.889099" />
      <path
         d="M 1447.202,723.90806 1.201958,716.16993 V 551.73477 c 275.648002,-41.4957 495.732732,-43.57532 650.496742,-36.7561 113.43038,4.98142 218.39074,15.91153 460.7686,27.08344 140.2634,6.48069 256.133,9.81775 334.7347,11.60719"
         id="path2"
         opacity="0.5"
         style="stroke-width:0.819243" />
      <path
         d="M 1447.202,721.98578 H 1.201958 V 545.16879 C 288.85336,557.50914 513.65766,543.2809 669.0333,527.21081 c 90.97993,-9.3934 149.11674,-18.46448 243.90362,-20.72074 225.57858,-5.34134 410.82918,33.98202 534.26508,69.06914"
         id="path3"
         opacity="0.5"
         style="stroke-width:0.779517" />
    </g>
  </g>
</svg>
